<svg xmlns="http://www.w3.org/2000/svg" xmlns:xlink="http://www.w3.org/1999/xlink" width="315" height="208" viewBox="0 0 315 208">
  <defs>
    <clipPath id="clip-path">
      <path id="Trazado_903286" data-name="Trazado 903286" d="M0,0H315V208H0Z" transform="translate(180 937)" fill="#fff4c0"/>
    </clipPath>
  </defs>
  <g id="Enmascarar_grupo_1098679" data-name="Enmascarar grupo 1098679" transform="translate(-180 -937)" clip-path="url(#clip-path)">
    <g id="Flag_of_UNESCO" transform="translate(181.673 937.173)">
      <path id="Trazado_978560" data-name="Trazado 978560" d="M-.173-.173h312v208h-312Z" fill="#009edb"/>
      <path id="Trazado_978561" data-name="Trazado 978561" d="M201.529,86.724c.7,0,1.083.385,1.083.706v42.129a1.022,1.022,0,0,1-1.083.809,1,1,0,0,1-1.071-.809V87.43c0-.276.371-.706,1.071-.706m-3.938.706a4,4,0,0,1,3.994-3.543c2.138,0,4.037,1.843,4.037,3.543v42.129a3.851,3.851,0,0,1-4.092,3.681,3.678,3.678,0,0,1-3.938-3.681V87.43Zm-18.642,0c0-1.694,1.959-3.543,4.025-3.543s4.006,1.789,4.006,3.543V98.359h-3.012V87.43c0-.316-.588-.706-.995-.706s-1.012.39-1.012.706v42.383c0,.435.581.809,1.012.809s.995-.336.995-.809V117.2h3.012v12.615a4.031,4.031,0,0,1-8.032,0Zm-18.354,0a3.726,3.726,0,0,1,3.735-3.543,3.884,3.884,0,0,1,3.964,3.543V98.359h-3.051V87.43a.825.825,0,0,0-.848-.706c-.433,0-.932.394-.932.706v8.058c0,2.872,1.462,7.491,2.641,11.486s2.375,9.2,2.375,12.058v10.781c0,2.471-1.886,3.681-3.98,3.681a3.661,3.661,0,0,1-3.9-3.681V117.2h2.867v12.615a.951.951,0,0,0,1.035.809.873.873,0,0,0,.971-.809V119.032c0-2.863-1.38-8.258-2.486-12.058s-2.387-8.614-2.387-11.486Zm-17.35-3.543h6.613V86.5h-3.173v19.251h3.173v2.722h-3.173v22.264h4.372v2.755h-7.812Zm-18.643,0H128l2.049,23.087V83.886h2.578v49.608h-2.578l-3.014-29.534v29.534H124.6V83.886Zm-18.642,0h3.074l.035,45.926a.91.91,0,0,0,1.808,0l-.035-45.926h3.149l.035,45.926a4.031,4.031,0,0,1-8.032,0Zm-18.884,68.4h137.5v4.555H87.075Zm6.211-8.275H218.424v4.831H93.286Zm6.406-8H212.258v4.831H99.692Zm0-58.8H212.258v4.659H99.692Zm9.427-3.882,46.7-14.421,46.036,14.421H188.321l-32.5-10.064L122.808,73.333Zm-9.427-5.125L155.82,50.814l56.438,17.394v5.125L155.82,56.25,99.692,73.333Z" fill="#fff" fill-rule="evenodd"/>
    </g>
  </g>
</svg>
